<svg width="46.601" height="70.8" viewBox="0 0 46.601 70.8" xmlns="http://www.w3.org/2000/svg"><g id="svgGroup" stroke-linecap="round" fill-rule="evenodd" font-size="9pt" stroke="#000" stroke-width="0.25mm" fill="#cbf707" style="stroke:#000;stroke-width:0.25mm;fill:#cbf707"><path d="M 9.5 70.8 L 0 70.8 L 0 1 Q 4.1 0.5 9.05 0.25 A 200.806 200.806 0 0 1 17.98 0.004 A 221.966 221.966 0 0 1 19.3 0 Q 26.87 0 32.472 2.082 A 26.011 26.011 0 0 1 34.1 2.75 A 24.606 24.606 0 0 1 39.182 5.779 A 19.374 19.374 0 0 1 43.4 10.3 Q 46.6 15.1 46.6 21.3 A 25.258 25.258 0 0 1 45.892 27.423 A 19.268 19.268 0 0 1 42.9 34 A 22.312 22.312 0 0 1 35.349 40.63 A 28.065 28.065 0 0 1 32.6 41.95 A 34.774 34.774 0 0 1 24.511 44.174 A 47.194 47.194 0 0 1 17.3 44.7 Q 13.1 44.7 9.5 44.4 L 9.5 70.8 Z M 9.5 8.4 L 9.5 36.3 Q 10.6 36.438 12.031 36.552 A 96.255 96.255 0 0 0 13.4 36.65 Q 15.7 36.8 18.5 36.8 A 31.831 31.831 0 0 0 23.88 36.375 Q 26.759 35.88 29.063 34.811 A 15.221 15.221 0 0 0 32.3 32.8 A 12.896 12.896 0 0 0 37.155 23.358 A 17.32 17.32 0 0 0 37.2 22.1 A 14.452 14.452 0 0 0 36.439 17.307 A 12.136 12.136 0 0 0 32.5 11.8 A 15.462 15.462 0 0 0 27.419 9.137 Q 25.193 8.427 22.5 8.16 A 34.58 34.58 0 0 0 19.1 8 A 131.125 131.125 0 0 0 15.842 8.039 A 109.939 109.939 0 0 0 14 8.1 A 91.274 91.274 0 0 0 11.117 8.264 A 75.041 75.041 0 0 0 9.5 8.4 Z" vector-effect="non-scaling-stroke"/></g></svg>